<svg xmlns="http://www.w3.org/2000/svg" xmlns:xlink="http://www.w3.org/1999/xlink" viewBox="0 0 776.74 566.693">
  <defs>
    <style>
      .cls-1, .cls-15, .cls-24 {
        opacity: 0.1;
      }

      .cls-2 {
        fill: #00c2d3;
      }

      .cls-3 {
        fill: url(#linear-gradient);
      }

      .cls-4 {
        fill: #f6f7f9;
      }

      .cls-5 {
        fill: #dde1ec;
      }

      .cls-6 {
        fill: #e8eaf1;
      }

      .cls-7 {
        fill: #ff5252;
      }

      .cls-8 {
        fill: #ff0;
      }

      .cls-9 {
        fill: #69f0ae;
      }

      .cls-10, .cls-24 {
        fill: #fff;
      }

      .cls-11 {
        fill: url(#linear-gradient-2);
      }

      .cls-12 {
        fill: url(#linear-gradient-3);
      }

      .cls-13 {
        fill: #e0a17e;
      }

      .cls-14 {
        fill: #f0f1f5;
      }

      .cls-16 {
        fill: #293158;
      }

      .cls-17 {
        opacity: 0.02;
      }

      .cls-18 {
        fill: #463e3b;
      }

      .cls-19 {
        fill: #cd9494;
      }

      .cls-20 {
        opacity: 0.05;
      }

      .cls-21 {
        fill: #ff7361;
      }

      .cls-22 {
        fill: none;
        stroke: #535461;
        stroke-miterlimit: 10;
      }

      .cls-23 {
        fill: #febdd5;
      }

      .cls-25 {
        fill: #efc8c4;
      }

      .cls-26 {
        fill: #727a9c;
      }

      .cls-27 {
        fill: #ffb9b9;
      }

      .cls-28 {
        fill: #cbcdda;
      }

      .cls-29 {
        fill: #4c4c78;
      }

      .cls-30 {
        fill: #b96b6b;
      }
    </style>
    <linearGradient id="linear-gradient" x1="0.5" y1="1" x2="0.5" gradientUnits="objectBoundingBox">
      <stop offset="0" stop-color="gray" stop-opacity="0.251"/>
      <stop offset="0.54" stop-color="gray" stop-opacity="0.122"/>
      <stop offset="1" stop-color="gray" stop-opacity="0.102"/>
    </linearGradient>
    <linearGradient id="linear-gradient-2" x1="0.501" y1="1" x2="0.501" y2="0" xlink:href="#linear-gradient"/>
    <linearGradient id="linear-gradient-3" x1="0.704" y1="1" x2="0.704" y2="0" xlink:href="#linear-gradient"/>
  </defs>
  <g id="undraw_wall_post_83ul" transform="translate(0.012)">
    <g id="Group_8" data-name="Group 8" class="cls-1" transform="translate(-0.012 44.44)">
      <path id="Path_26" data-name="Path 26" class="cls-2" d="M100.12,153.835c7.242,12.6,3.231,28.961-4.636,41.181s-19.057,21.918-27.776,33.576c-17.331,23.26-21.812,59.989.043,79.1,4.707,4.118,10.529,7.377,13.4,12.929,3.962,7.661,1.03,16.891-1.96,25.007l-.249.667a56.959,56.959,0,0,0,36.537,74.168c17.26,5.318,32.838,13.938,44.369,27.875,10.075,12.184,15.9,27.215,22.543,41.557,12.013,25.908,27.52,50.681,48.948,69.546s49.388,31.368,77.931,30.339c65.193-2.35,113.2-71,178.327-74.615,4.693-.263,9.692-.085,13.618,2.5,5.538,3.649,7.235,10.813,9.564,17.04,12.333,32.966,49.467,48.16,82.716,59.7l62.481,21.712c33.939,11.786,69.581,23.75,105.082,18.29S831.219,599.8,829.678,563.9c-1.264-29.487-25.7-55.438-22.5-84.783,2.215-20.278,17.4-37.311,19.944-57.554,2.648-21.066-8.868-41.294-22.124-57.88-38.142-47.741-92.5-79.209-145.552-109.562-37.368-21.386-74.928-42.856-115.157-58.221-99.174-37.78-208.175-36.154-313.825-46.463-18.169-1.775-37.162-3.862-53.812-11.893-12.78-6.163-22.77-20.413-36.793-23.43-10.686-2.3-26.491,2.45-35.82,7.64C87.034,131.285,91.72,139.216,100.12,153.835Z" transform="translate(-52.988 -113.521)"/>
    </g>
    <path id="Path_27" data-name="Path 27" class="cls-3" d="M799.724,50.93H229.1a19.88,19.88,0,0,0-19.8,19.987v401.3A19.88,19.88,0,0,0,229.1,492.2H799.724a19.88,19.88,0,0,0,19.8-19.987V70.917a19.88,19.88,0,0,0-19.8-19.987Z" transform="translate(-98.329 -50.93)"/>
    <path id="Path_28" data-name="Path 28" class="cls-4" d="M818.088,110.81V484.794a19.625,19.625,0,0,1-19.625,19.625H232.875a19.625,19.625,0,0,1-19.625-19.625V110.81Z" transform="translate(-99.474 -68.295)"/>
    <path id="Path_29" data-name="Path 29" class="cls-5" d="M361,382.3V583.141H232.875a19.823,19.823,0,0,1-19.625-20.008V382.3Z" transform="translate(-99.474 -147.023)"/>
    <rect id="Rectangle_10" data-name="Rectangle 10" class="cls-5" width="246.246" height="6.923" transform="translate(305.387 88.304)"/>
    <rect id="Rectangle_11" data-name="Rectangle 11" class="cls-5" width="148.513" height="6.923" transform="translate(305.387 137.551)"/>
    <rect id="Rectangle_12" data-name="Rectangle 12" class="cls-5" width="50.02" height="6.923" transform="translate(486.993 137.551)"/>
    <g id="Group_9" data-name="Group 9" class="cls-1" transform="translate(159.174 310.303)">
      <rect id="Rectangle_13" data-name="Rectangle 13" class="cls-2" width="50.02" height="6.923"/>
    </g>
    <rect id="Rectangle_14" data-name="Rectangle 14" class="cls-5" width="50.02" height="6.923" transform="translate(486.993 202.19)"/>
    <rect id="Rectangle_15" data-name="Rectangle 15" class="cls-5" width="50.02" height="6.923" transform="translate(486.993 266.829)"/>
    <rect id="Rectangle_16" data-name="Rectangle 16" class="cls-5" width="50.02" height="6.923" transform="translate(486.993 159.099)"/>
    <rect id="Rectangle_17" data-name="Rectangle 17" class="cls-5" width="50.02" height="6.923" transform="translate(573.175 159.099)"/>
    <rect id="Rectangle_18" data-name="Rectangle 18" class="cls-5" width="50.02" height="6.923" transform="translate(486.993 180.641)"/>
    <rect id="Rectangle_19" data-name="Rectangle 19" class="cls-5" width="50.02" height="6.923" transform="translate(573.175 180.641)"/>
    <rect id="Rectangle_20" data-name="Rectangle 20" class="cls-5" width="50.02" height="6.923" transform="translate(573.175 220.657)"/>
    <rect id="Rectangle_21" data-name="Rectangle 21" class="cls-5" width="50.02" height="6.923" transform="translate(573.175 242.206)"/>
    <rect id="Rectangle_22" data-name="Rectangle 22" class="cls-5" width="50.02" height="6.923" transform="translate(573.175 288.378)"/>
    <rect id="Rectangle_23" data-name="Rectangle 23" class="cls-5" width="148.513" height="6.923" transform="translate(305.387 159.099)"/>
    <rect id="Rectangle_24" data-name="Rectangle 24" class="cls-5" width="148.513" height="6.923" transform="translate(305.387 180.641)"/>
    <rect id="Rectangle_25" data-name="Rectangle 25" class="cls-5" width="148.513" height="6.923" transform="translate(305.387 202.19)"/>
    <rect id="Rectangle_26" data-name="Rectangle 26" class="cls-5" width="148.513" height="6.923" transform="translate(305.387 223.739)"/>
    <rect id="Rectangle_27" data-name="Rectangle 27" class="cls-5" width="148.513" height="6.923" transform="translate(305.387 245.281)"/>
    <rect id="Rectangle_28" data-name="Rectangle 28" class="cls-5" width="148.513" height="6.923" transform="translate(305.387 266.829)"/>
    <rect id="Rectangle_29" data-name="Rectangle 29" class="cls-5" width="148.513" height="6.923" transform="translate(305.387 288.378)"/>
    <rect id="Rectangle_30" data-name="Rectangle 30" class="cls-2" width="147.746" height="196.993" transform="translate(113.776 42.132)"/>
    <path id="Path_30" data-name="Path 30" class="cls-6" d="M818.088,74.618A19.625,19.625,0,0,0,798.463,55H232.875A19.625,19.625,0,0,0,213.25,74.625V96.94H818.088Z" transform="translate(-99.474 -52.11)"/>
    <circle id="Ellipse_6" data-name="Ellipse 6" class="cls-7" cx="7.697" cy="7.697" r="7.697" transform="translate(129.936 15.968)"/>
    <circle id="Ellipse_7" data-name="Ellipse 7" class="cls-8" cx="7.697" cy="7.697" r="7.697" transform="translate(155.326 15.968)"/>
    <circle id="Ellipse_8" data-name="Ellipse 8" class="cls-9" cx="7.697" cy="7.697" r="7.697" transform="translate(180.723 15.968)"/>
    <path id="Path_31" data-name="Path 31" class="cls-10" d="M342.8,231.393a42.892,42.892,0,0,1-9.6,27.1c-.234.291-.469.575-.71.859h0a1.164,1.164,0,0,0-.128.156,43.313,43.313,0,0,1-7.434,6.809l-.355.263c-.49.348-.987.71-1.491,1.008l-.348.22-.746.462a3.781,3.781,0,0,1-.341.192,2.267,2.267,0,0,1-.291.178q-1.64.959-3.38,1.768c-.128.071-.27.128-.4.192s-.291.142-.447.2-.461.206-.71.3a41.936,41.936,0,0,1-7.689,2.414,42.959,42.959,0,0,1-7.633.93h-1.406a43.021,43.021,0,0,1-10.061-1.157l-.618-.149q-2.173-.568-4.26-1.321c-.845-.312-1.683-.653-2.5-1.015-.206-.092-.4-.177-.611-.277l-.618-.277-.54-.277h0l-.568-.291-.632-.334-.71-.4-.114-.064a43.261,43.261,0,0,1-8.364-6.184c-.213-.206-.433-.4-.639-.625s-.447-.44-.66-.667a43.091,43.091,0,1,1,74-30.005Z" transform="translate(-112.051 -90.761)"/>
    <path id="Path_32" data-name="Path 32" class="cls-11" d="M334.954,253.674a12.3,12.3,0,0,1-.419,1.9,1.754,1.754,0,0,1-.092.284c0-.27-.05-.554-.064-.859h0c-.213-3.16-.4-8.151.241-11.1.6-2.776-3.791-1.931-6.724.554h0a7.732,7.732,0,0,0-2.045,2.563c-.064-.085-.128-.163-.2-.249a7.739,7.739,0,0,0-5.822-2.876,19.817,19.817,0,0,1-12.375-5.425c-.142-.575-.249-1.143-.334-1.718a4.7,4.7,0,0,0-.078-.54,10.7,10.7,0,0,0,3.287-5.545v-.085a10.72,10.72,0,0,0,.27-2.357,8.393,8.393,0,0,0-.035-.951,1.161,1.161,0,0,0-.035-.348c-.035-.114,0-.27-.057-.4a4.694,4.694,0,0,0,.518-.27,5.95,5.95,0,0,0,2.3-2.606v-.057a9.817,9.817,0,0,0,.454-1.179,14.252,14.252,0,0,0,.589-3.55c0-.149,0-.3,0-.462,0-.93-.185-2.095-1.093-2.286-1.2-.256-2.073,1.555-3.287,1.363A1.846,1.846,0,0,1,309,216.9c-.824-.817-1.377-1.867-2.2-2.691a7.526,7.526,0,0,0-4.7-2,17.749,17.749,0,0,0-5.169.476,8.7,8.7,0,0,0-2.67.909,3.181,3.181,0,0,0-1.6,2.194,3.135,3.135,0,0,0,0,.6v.916a3.408,3.408,0,0,1-.05.391,3.245,3.245,0,0,1-1.64,1.96c-.753.447-1.59.76-2.307,1.271a6.042,6.042,0,0,0-2.222,3.55,9.388,9.388,0,0,0-.248,2.407,15.925,15.925,0,0,0,.121,2.187,23.472,23.472,0,0,0,2.031,7.043,11.248,11.248,0,0,0,1.008,1.775h0a4.388,4.388,0,0,0,.305.391,10.715,10.715,0,0,0,2.293,1.938l.49.334a1.42,1.42,0,0,0,1.214.312,1.292,1.292,0,0,0,.369-.213,2.84,2.84,0,0,0,.888-2.237V238.3a.705.705,0,0,1,0,.121,1.157,1.157,0,0,1,0,.163h.071a10.521,10.521,0,0,1,0,1.086,3.974,3.974,0,0,1,0,.44c0,.085,0,.17,0,.249l-.114.1h0c-.234.2-.66.547-1.25,1.008h0a37.553,37.553,0,0,1-7.981,4.75,11.36,11.36,0,0,0-6.539,7.263,25.48,25.48,0,0,1-3.1,6.724c-.341.5-1.278,4.26-2.371,8.123.213.234.44.454.66.667s.426.419.639.625a43.261,43.261,0,0,0,8.364,6.184l.114.064.71.4.632.334c0-.533-.071-1.022-.106-1.484a7.041,7.041,0,0,0-.071-.8c.163-.27.305-.511.44-.71,0,.206.05.433.071.71h0c.078.71.156,1.583.241,2.584a7.329,7.329,0,0,0,.071.994c0-.348-.035-.71-.064-.994l.54.277.618.277c.2.1.4.185.611.277.816.362,1.654.71,2.5,1.015a43.689,43.689,0,0,0,4.26,1.321l.618.149a43.021,43.021,0,0,0,10.075,1.186h1.406a42.958,42.958,0,0,0,7.7-.959,41.933,41.933,0,0,0,7.689-2.414q.348-.142.71-.3c.156-.064.3-.128.447-.2s.277-.121.4-.192c-.71-2.492-1.093-4.09-1.093-4.09l.937-2.407.114-.291.284-.746h0a.814.814,0,0,0,.078.277h0a11.311,11.311,0,0,0,3.337,5.318,3.789,3.789,0,0,0,.341-.192l.746-.461.348-.22c.511-.334,1-.66,1.491-1.008l.355-.263a43.312,43.312,0,0,0,7.434-6.809l.128-.156h0c.241-.284.476-.568.71-.859Zm-6.191,3.238a.783.783,0,0,1,.064.106l-.057-.05Z" transform="translate(-116.984 -97.691)"/>
    <path id="Path_33" data-name="Path 33" class="cls-12" d="M332.878,265.431v.057l.05.05C332.913,265.495,332.892,265.466,332.878,265.431Zm-43.424,21.3c-.071-.994-.142-1.889-.206-2.655-.05-.54-.1-1.022-.142-1.42a.129.129,0,0,1,0-.057c0-.1,0-.192,0-.284a16.33,16.33,0,0,0-1.676,3.337l.114.064.71.4.632.334.568.291a7.33,7.33,0,0,0,.071.994c-.035-.341-.05-.667-.071-.987Zm9.45-40.591h0l.035.064h0a.162.162,0,0,1,0,.05.277.277,0,0,0-.035-.092Z" transform="translate(-120.986 -107.539)"/>
    <path id="Path_34" data-name="Path 34" class="cls-13" d="M313.792,235.93s-2.563,11.516,4.48,17.6-16.636,10.849-20.81,5.758,2.9-7.689,2.9-7.689,3.55-2.883,0-11.516Z" transform="translate(-123.512 -104.578)"/>
    <path id="Path_35" data-name="Path 35" class="cls-14" d="M319.92,292.585a42.962,42.962,0,0,1-7.633.93h-1.406a43.022,43.022,0,0,1-10.054-1.172l-.618-.149q-2.173-.568-4.26-1.321l-.71-10.65,3.081-14.747,1.811-8.691.511-2.428.518.71.114.156.142.185,5.68,7.562,5.815-6.262.3-.327,1.6-1.725.6-.646.284,2.194,1.022,7.888,1.9,14.548Z" transform="translate(-123.25 -109.821)"/>
    <path id="Path_36" data-name="Path 36" class="cls-15" d="M342.4,284.693c-.49.348-.987.71-1.491,1.008l-.348.22-.746.462a3.789,3.789,0,0,1-.341.192,2.272,2.272,0,0,1-.291.178,11.417,11.417,0,0,1-3.4-5.013,7.815,7.815,0,0,1-.213-.753.708.708,0,0,1,0-.121l-.4,1.065-1.243,3.074s.369,1.505,1.03,3.891q-.348.163-.71.3a41.934,41.934,0,0,1-7.689,2.414,42.953,42.953,0,0,1-7.633.93h-.391a70.6,70.6,0,0,1-.376-9.94l.937-17.871.476-9.017.263-4.97s.092.1.27.263.3.284.511.476h0a19.17,19.17,0,0,0,11.36,4.693,7.54,7.54,0,0,1,5.907,3.138,13.91,13.91,0,0,1,2.407,6.142l.213,1.953h0l.057.554.078.71Z" transform="translate(-129.884 -108.873)"/>
    <path id="Path_37" data-name="Path 37" class="cls-16" d="M342.89,284.208l-.355.263c-.49.348-.987.71-1.491,1.008l-.348.22-.745.462a11.772,11.772,0,0,1-3.678-5.126h0a1.967,1.967,0,0,1-.085-.256c-.078-.249-.149-.511-.206-.767l-.291.76-.4,1.03-.909,2.371s.419,1.7,1.157,4.331c-.149.071-.291.142-.447.2s-.462.206-.71.3a41.933,41.933,0,0,1-7.689,2.414,42.956,42.956,0,0,1-7.633.93,70.644,70.644,0,0,1-.447-10.593l.909-17.317.483-9.23.234-4.352.043-.9a1.412,1.412,0,0,0,.121.121,19.234,19.234,0,0,0,12.07,5.318,7.54,7.54,0,0,1,5.85,3.06,13.874,13.874,0,0,1,2.471,6.22l.376,3.5v.05h0l.078.71Z" transform="translate(-130.018 -108.644)"/>
    <path id="Path_38" data-name="Path 38" class="cls-15" d="M295.918,253v.433l-.114,1.647-.4,5.637s-.234,1.626-.4,5.29c-.249,4.828-.4,13.192.178,26.057l-.618-.149q-2.173-.568-4.26-1.321c-.845-.312-1.683-.653-2.5-1.015-.206-.092-.4-.177-.611-.277-.206-2.84-.454-4.58-.454-4.58a8.29,8.29,0,0,0-.483.71c-.121.192-.27.426-.426.71l-.036.064h0q-.206.355-.44.809a12.049,12.049,0,0,0-.525,1.157l-.71-.4-.114-.064a43.262,43.262,0,0,1-8.364-6.184c1.143-4.026,2.13-8.073,2.485-8.591a24.678,24.678,0,0,0,3.018-6.582,11.154,11.154,0,0,1,6.39-7.1A25.917,25.917,0,0,0,295.9,253Z" transform="translate(-117.567 -109.528)"/>
    <path id="Path_39" data-name="Path 39" class="cls-16" d="M295.638,252.674a38.4,38.4,0,0,1-9.1,5.73,11.154,11.154,0,0,0-6.39,7.1,24.68,24.68,0,0,1-3.018,6.582c-.348.518-1.342,4.572-2.485,8.605.206.213.426.419.639.625a43.263,43.263,0,0,0,8.364,6.184l.114.064a16.243,16.243,0,0,1,1.562-3.01l.035-.057c.249-.369.4-.568.4-.568s.064.469.156,1.314.213,2.13.327,3.621l.618.277c.2.1.4.185.611.277.816.362,1.654.71,2.5,1.015a43.692,43.692,0,0,0,4.26,1.321c-.582-12.738-.454-21.13-.22-26.079.185-3.99.433-5.758.433-5.758l.9-5.183.256-1.463.121-.71Z" transform="translate(-117.279 -109.4)"/>
    <path id="Path_40" data-name="Path 40" class="cls-15" d="M308.158,247.4a10.515,10.515,0,0,1-4.608-1.058,20.712,20.712,0,0,0-1.47-5.346l13.433-4.154a25.716,25.716,0,0,0-.277,7.81A10.522,10.522,0,0,1,308.158,247.4Z" transform="translate(-125.234 -104.842)"/>
    <circle id="Ellipse_9" data-name="Ellipse 9" class="cls-13" cx="10.558" cy="10.558" r="10.558" transform="translate(172.366 120.801)"/>
    <g id="Group_10" data-name="Group 10" class="cls-1" transform="translate(203.088 171.354)">
      <path id="Path_41" data-name="Path 41" d="M340.332,301.266c-.831-2.918-1.292-4.835-1.292-4.835l1.6-4.161a8.983,8.983,0,0,0,.547,1.7l.035.092-.909,2.371s.419,1.7,1.157,4.331c-.149.071-.291.142-.447.2S340.559,301.174,340.332,301.266Z" transform="translate(-339.04 -292.27)"/>
    </g>
    <path id="Path_42" data-name="Path 42" class="cls-13" d="M354.736,270.626s-.959-9.28,0-13.76-11.2.639-8.641,6.717a52.243,52.243,0,0,0,5.119,9.6Z" transform="translate(-137.895 -110.156)"/>
    <path id="Path_43" data-name="Path 43" class="cls-15" d="M358.215,283.511a43.349,43.349,0,0,1-7.434,6.809l-.355.263c-.49.348-.987.71-1.491,1.008a30,30,0,0,1-3.053-4.352l-.092-.163,2.563-13.441.27.277c.114.107.263.249.44.391h.035c1.328,1.136,4.132,2.84,5.481-1.122a11.965,11.965,0,0,0,.49-2.13l.263.98h0l.156.575,2.84,10.714h0Z" transform="translate(-137.909 -114.762)"/>
    <path id="Path_44" data-name="Path 44" class="cls-16" d="M358.215,283.777a43.314,43.314,0,0,1-7.434,6.809l-.355.263c-.49.348-.987.71-1.491,1.008l-.348.22a30.973,30.973,0,0,1-2.8-4.1l.092-.476,2.471-12.965s.128.149.348.355l.44.391a6.98,6.98,0,0,0,.632.483c1.47,1.008,3.706,1.768,4.842-1.775a11.99,11.99,0,0,0,.454-2.016l.327,1.207Z" transform="translate(-137.909 -115.029)"/>
    <path id="Path_45" data-name="Path 45" class="cls-17" d="M358.215,283.777a43.314,43.314,0,0,1-7.434,6.809l-.355.263c-.49.348-.987.71-1.491,1.008l-.348.22a30.973,30.973,0,0,1-2.8-4.1l.092-.476,2.471-12.965s.128.149.348.355l.44.391a6.98,6.98,0,0,0,.632.483c1.47,1.008,3.706,1.768,4.842-1.775a11.99,11.99,0,0,0,.454-2.016l.327,1.207Z" transform="translate(-137.909 -115.029)"/>
    <path id="Path_46" data-name="Path 46" class="cls-15" d="M289.776,296.368l-.035.057v-.107a7.785,7.785,0,0,1,1.214-2.918s.476,3.16.9,7.9c-.206-.092-.4-.177-.611-.277l-.618-.277c-.107-1.527-.22-2.769-.327-3.621s-.156-1.314-.156-1.314S290.024,296,289.776,296.368Z" transform="translate(-121.655 -121.243)"/>
    <path id="Path_47" data-name="Path 47" class="cls-15" d="M305.4,226.749a2.9,2.9,0,0,1,1.811-.327,2.066,2.066,0,0,1,.71.5,6.344,6.344,0,0,0,2.776,1.945,5.367,5.367,0,0,0,2.08-.092,9.94,9.94,0,0,0,3.422-1.044c2.379-1.42,3.138-4.494,3.287-7.256.05-.93-.142-2.13-1.058-2.329-1.164-.249-2.016,1.519-3.2,1.328a1.782,1.782,0,0,1-.923-.561c-.8-.8-1.349-1.832-2.13-2.641a7.32,7.32,0,0,0-4.572-1.96,17.1,17.1,0,0,0-5.034.476,8.271,8.271,0,0,0-2.592.887,3.117,3.117,0,0,0-1.562,2.13c-.078.618.085,1.257-.035,1.867a3.138,3.138,0,0,1-1.59,1.924,23.461,23.461,0,0,0-2.244,1.25,5.943,5.943,0,0,0-2.166,3.451,11.687,11.687,0,0,0-.114,4.139,22.92,22.92,0,0,0,1.974,6.9,9.776,9.776,0,0,0,1.285,2.13,11.936,11.936,0,0,0,2.592,2.13,1.576,1.576,0,0,0,1.3.391,1.128,1.128,0,0,0,.362-.213,3.248,3.248,0,0,0,.71-3.287,18.469,18.469,0,0,1-.824-3.436,1.654,1.654,0,0,1,.185-.959,4.26,4.26,0,0,1,.639-.646,3.863,3.863,0,0,0,.71-1.2,11.736,11.736,0,0,0,1.1-3.451,4.651,4.651,0,0,0-.618-2.84A3.671,3.671,0,0,0,305.4,226.749Z" transform="translate(-122.352 -98.301)"/>
    <path id="Path_48" data-name="Path 48" class="cls-18" d="M305.4,226.229a2.9,2.9,0,0,1,1.811-.327,2.065,2.065,0,0,1,.71.5,6.344,6.344,0,0,0,2.776,1.945,5.368,5.368,0,0,0,2.08-.092,9.94,9.94,0,0,0,3.422-1.044c2.379-1.42,3.138-4.494,3.287-7.256.05-.93-.142-2.13-1.058-2.329-1.164-.249-2.016,1.519-3.2,1.328a1.782,1.782,0,0,1-.923-.561c-.8-.8-1.349-1.832-2.13-2.641a7.32,7.32,0,0,0-4.572-1.96,17.1,17.1,0,0,0-5.034.476,8.272,8.272,0,0,0-2.592.887,3.117,3.117,0,0,0-1.562,2.13c-.078.618.085,1.257-.035,1.867a3.138,3.138,0,0,1-1.59,1.924,23.464,23.464,0,0,0-2.244,1.25,5.943,5.943,0,0,0-2.166,3.451,11.687,11.687,0,0,0-.114,4.139,22.92,22.92,0,0,0,1.974,6.9,9.776,9.776,0,0,0,1.285,2.13,11.936,11.936,0,0,0,2.592,2.13,1.576,1.576,0,0,0,1.3.391,1.129,1.129,0,0,0,.362-.213,3.248,3.248,0,0,0,.71-3.287,18.469,18.469,0,0,1-.824-3.436,1.654,1.654,0,0,1,.185-.959,4.26,4.26,0,0,1,.639-.646,3.862,3.862,0,0,0,.71-1.2,11.736,11.736,0,0,0,1.1-3.451,4.65,4.65,0,0,0-.618-2.84A3.671,3.671,0,0,0,305.4,226.229Z" transform="translate(-122.352 -98.15)"/>
    <ellipse id="Ellipse_10" data-name="Ellipse 10" class="cls-19" cx="17.885" cy="6.568" rx="17.885" ry="6.568" transform="translate(107.073 388.98)"/>
    <ellipse id="Ellipse_11" data-name="Ellipse 11" class="cls-20" cx="9.124" cy="3.351" rx="9.124" ry="3.351" transform="translate(115.835 391.465)"/>
    <path id="Path_49" data-name="Path 49" class="cls-21" d="M203.419,606s19.71,10.948,35.77,1.463c0,0-2.187,37.964-13.142,41.614H211.456S199.045,623.495,203.419,606Z" transform="translate(-96.352 -211.894)"/>
    <path id="Path_50" data-name="Path 50" class="cls-2" d="M223.125,497.647c5.02,18.34-16.38,70.582-16.38,70.582s-45.008-34.081-50.027-52.413a34.424,34.424,0,1,1,66.407-18.169Z" transform="translate(-82.724 -173.122)"/>
    <path id="Path_51" data-name="Path 51" class="cls-15" d="M223.125,497.647c5.02,18.34-16.38,70.582-16.38,70.582s-45.008-34.081-50.027-52.413a34.424,34.424,0,1,1,66.407-18.169Z" transform="translate(-82.724 -173.122)"/>
    <path id="Path_52" data-name="Path 52" class="cls-22" d="M191.45,474.17s28.017,42.3,25.908,94.694" transform="translate(-93.152 -173.665)"/>
    <path id="Path_53" data-name="Path 53" class="cls-2" d="M251.641,554.5s-25.433-13.824-22.188,37.2c0,0,21.194-.76,28.713-18.049a15,15,0,0,0-6.149-18.936Z" transform="translate(-104.09 -196.465)"/>
    <path id="Path_54" data-name="Path 54" class="cls-22" d="M252.177,555.32S248.9,581.8,229.57,592.432" transform="translate(-104.207 -197.197)"/>
    <path id="Path_55" data-name="Path 55" class="cls-20" d="M240.192,609.257c-.71,8.733-3.77,35.856-12.936,38.916H214.17c.419.93.674,1.463.674,1.463h14.6C240.391,645.979,242.585,608,242.585,608A26.572,26.572,0,0,1,240.192,609.257Z" transform="translate(-99.741 -212.474)"/>
    <rect id="Rectangle_31" data-name="Rectangle 31" class="cls-5" width="148.513" height="86.188" transform="translate(305.387 335.701)"/>
    <path id="Path_56" data-name="Path 56" class="cls-3" d="M901.165,255.25a6.23,6.23,0,0,0,0-.838c-.256-3.465-3.55-5.971-6.816-7.306s-6.916-1.988-9.805-4.012c-4.885-3.422-6.39-9.819-6.83-15.67-.135-1.818-.192-3.635-.2-5.46s.114-3.841.284-5.758a95.984,95.984,0,0,0,.71-9.663,18.567,18.567,0,0,0-1.7-8.84c-2.9-5.723-9.4-8.648-15.421-11.14a16.228,16.228,0,0,0-14.953-.44c-3.99,1.349-8.037,3.1-12.162,4.019-2.315.511-4.849.128-7.1.944-4.416,1.619-5.361,5.588-5.29,9.94v.824c-.44-.4-.895-.788-1.356-1.157l-.27-.213a16.4,16.4,0,0,0-1.512-1.086l-.256-.163a25.446,25.446,0,0,0-3.4-1.853l-.177-.078q-.888-.391-1.8-.71l-.114-.043a25.887,25.887,0,0,0-3.877-1.022h0a25.823,25.823,0,0,0-23.09,7.256l-4.878,4.97h0c-22.174-4.97-23.168,14.293-23.168,14.293l.163-.036-.057.135a68.484,68.484,0,0,0,1.91,7.214L588.76,404.253,571.45,457.9l9.72-3.465,44.4-15.862,159-162.422a297.309,297.309,0,0,1,24.268,19.788s-7.668,4.054-4.828,22.628c3.472,22.72-1.747,55.061-1.747,55.061v20.917l.98-.27c-.121.71-.249,1.42-.369,2.237a119.341,119.341,0,0,0-.611,31.752c2.627,22.195,13.121,52.5,13.121,52.5s3.933,10.65,4.814,19.206a17.9,17.9,0,0,0,1.122,4.935,39.235,39.235,0,0,1,3.067,14.818,105.109,105.109,0,0,0,6.745,37.446c4.438,11.417,6.078,18.105,6.568,22.01-3.145,4.161-7.256,8.7-10.5,9.152-6.12.852-17.935,1.7-10.061,11.95a7.249,7.249,0,0,0,.916.973c-5.978.966-12.553,3.1-6.163,11.4,7.874,10.245,54.238,5.552,54.238,5.552s.3-5.68,0-11.942c3.252-.227,5.261-.433,5.261-.433s1.314-24.758-4.374-27.747a12,12,0,0,0-3.067.753c-.611-3.422-1.079-7.675-1.37-10.828l2.251-.17V530.706s-2.627-23.047-12.248-33.293a20.694,20.694,0,0,1-3.145-4.26c.071-2.961.078-7.1.042-11.879a9.858,9.858,0,0,1,1.356-1.789s5.247-6.39,23.182-46.953c10.579-23.92,8.222-37.73,4.509-45.043-.71-2.6-2.556-10.018-4.97-23.679-3.06-17.5.44-34.578.44-34.578s11.36-29.451,16.621-41.4a19.449,19.449,0,0,0,1.477-9.124,8.74,8.74,0,0,0,2.62-4.26l5.389-14.378a11.517,11.517,0,0,0,1.051-4.828Zm-73.188-25.887a21.869,21.869,0,0,0,1.953,2.6h0s-.8-.838-2.13-2.187C827.864,229.64,827.92,229.5,827.977,229.363Zm-26.5,29.515,14.832-15.152c5.126,4.686,10.615,9.472,15.2,13.412a43.92,43.92,0,0,1-1.732,5.943,8.065,8.065,0,0,1-7.81-.433C816.908,259.915,807.564,259.105,801.48,258.878Z" transform="translate(-203.348 -89.668)"/>
    <path id="Path_57" data-name="Path 57" class="cls-23" d="M875.247,210.5s-11,6.348-7.611,15.265c0,0,11.424,3.387,16.075,11.85s40.62,38.923,40.62,38.923L950.558,263.4s-9.124-12.184-37.986-20.69c0,0-17.04-18.24-22.94-21.62S875.247,210.5,875.247,210.5Z" transform="translate(-289.051 -97.203)"/>
    <path id="Path_58" data-name="Path 58" class="cls-20" d="M875.247,210.5s-11,6.348-7.611,15.265c0,0,11.424,3.387,16.075,11.85s40.62,38.923,40.62,38.923L950.558,263.4s-9.124-12.184-37.986-20.69c0,0-17.04-18.24-22.94-21.62S875.247,210.5,875.247,210.5Z" transform="translate(-289.051 -97.203)"/>
    <path id="Path_59" data-name="Path 59" class="cls-2" d="M595.782,411.671,786.619,211.895a24.623,24.623,0,0,1,34.791-.8h0a24.623,24.623,0,0,1,.8,34.791L631.4,445.695l-52.356,19.17Z" transform="translate(-205.549 -95.403)"/>
    <path id="Path_60" data-name="Path 60" class="cls-24" d="M811,207.643h0a24.623,24.623,0,0,1,.8,34.791L620.962,442.21l-39.306,14.378L579,464.937l52.356-19.17,190.858-199.7a24.623,24.623,0,0,0-.8-34.791h0A24.51,24.51,0,0,0,807,204.59,24.725,24.725,0,0,1,811,207.643Z" transform="translate(-205.537 -95.49)"/>
    <path id="Path_61" data-name="Path 61" class="cls-25" d="M542.782,445.45,578.4,479.467l-42.956,15.72-9.4,3.436L532,479.715Z" transform="translate(-152.549 -129.175)"/>
    <path id="Path_62" data-name="Path 62" class="cls-26" d="M584.985,544.63a10.473,10.473,0,0,1,3.664,1.47,4.172,4.172,0,0,1,1.874,4.09,9.81,9.81,0,0,1-1.477,2.677,8.357,8.357,0,0,0-.618,7.242L579,563.545Z" transform="translate(-205.537 -194.097)"/>
    <path id="Path_63" data-name="Path 63" class="cls-27" d="M968.766,718.791s1.271,18.617,3.387,20.732-19.042,3.387-19.042,3.387l2.961-24.14Z" transform="translate(-314.025 -244.596)"/>
    <path id="Path_64" data-name="Path 64" class="cls-20" d="M968.766,718.791s1.271,18.617,3.387,20.732-19.042,3.387-19.042,3.387l2.961-24.14Z" transform="translate(-314.025 -244.596)"/>
    <path id="Path_65" data-name="Path 65" class="cls-28" d="M960.974,736.641s-2.961,0-13.54,5.5c0,0-7.192-1.271-10.153-11.424,0,0-8.882,15.23-14.811,16.075s-17.346,1.69-9.734,11.85,52.463,5.5,52.463,5.5S966.477,739.6,960.974,736.641Z" transform="translate(-301.583 -248.061)"/>
    <path id="Path_66" data-name="Path 66" class="cls-20" d="M960.974,736.641s-2.961,0-13.54,5.5c0,0-7.192-1.271-10.153-11.424,0,0-8.882,15.23-14.811,16.075s-17.346,1.69-9.734,11.85,52.463,5.5,52.463,5.5S966.477,739.6,960.974,736.641Z" transform="translate(-301.583 -248.061)"/>
    <path id="Path_67" data-name="Path 67" class="cls-27" d="M963.612,753.021l-2.961,8.037-19.461-5.5,1.108-7.981.27-1.924.71-5.325s16.5-4.26,16.5-2.13a32.821,32.821,0,0,0,1.086,5.155c.71,2.6,1.527,5.566,2.13,7.519C963.364,752.177,963.612,753.021,963.612,753.021Z" transform="translate(-310.568 -250.056)"/>
    <path id="Path_68" data-name="Path 68" class="cls-29" d="M948.546,563.1a11.558,11.558,0,0,0-.035,11.772,20.5,20.5,0,0,0,3.039,4.218c9.308,10.153,11.85,33,11.85,33v36.807l-6.348.49-10.153.781-15.265-62.609s-8.882-45.7-4.651-53.734,8.037-58.384,8.037-58.384l3.515-3.635,8.336-8.634h24.14a16.217,16.217,0,0,1,4.693,5.247c4.047,6.7,7.682,20.64-3.422,46.371-17.346,40.194-22.422,46.541-22.422,46.541a9.747,9.747,0,0,0-1.313,1.768Z" transform="translate(-306.117 -170.475)"/>
    <path id="Path_69" data-name="Path 69" class="cls-20" d="M948.546,563.1a11.558,11.558,0,0,0-.035,11.772,20.5,20.5,0,0,0,3.039,4.218c9.308,10.153,11.85,33,11.85,33v36.807l-6.348.49-10.153.781-15.265-62.609s-8.882-45.7-4.651-53.734,8.037-58.384,8.037-58.384l3.515-3.635,8.336-8.634h24.14a16.217,16.217,0,0,1,4.693,5.247c4.047,6.7,7.682,20.64-3.422,46.371-17.346,40.194-22.422,46.541-22.422,46.541a9.747,9.747,0,0,0-1.313,1.768Z" transform="translate(-306.117 -170.475)"/>
    <path id="Path_70" data-name="Path 70" class="cls-15" d="M961.455,743.365l-18.325,2.286.71-5.325s16.5-4.26,16.5-2.13A32.83,32.83,0,0,0,961.455,743.365Z" transform="translate(-311.131 -250.056)"/>
    <path id="Path_71" data-name="Path 71" class="cls-29" d="M937.652,506.262s1.051,33.307,1.228,54.238c.036,4.736,0,8.84-.035,11.772a26.094,26.094,0,0,1-.341,4.643c-1.271,3.806,1.271,12.269,1.271,12.269,10.579,27.925,7.618,52.463,7.618,52.463v18.616l-20.321,2.542s3.387-2.542-5.922-27.08a107.105,107.105,0,0,1-6.525-37.119,39.717,39.717,0,0,0-2.968-14.683,18.119,18.119,0,0,1-1.051-4.9c-.845-8.463-4.651-19.043-4.651-19.043s-10.153-30.041-12.7-52.044a121.183,121.183,0,0,1,.589-31.475,78.527,78.527,0,0,1,1.526-7.874s41.358-26.029,56.978-8.037a20.372,20.372,0,0,1,3.55,5.922,39.083,39.083,0,0,1,2,6.589C962.7,496.961,937.652,506.262,937.652,506.262Z" transform="translate(-296.452 -167.877)"/>
    <circle id="Ellipse_12" data-name="Ellipse 12" class="cls-27" cx="21.577" cy="21.577" r="21.577" transform="translate(618.353 109.917)"/>
    <path id="Path_72" data-name="Path 72" class="cls-27" d="M937.061,249.814s8.882,24.964,0,38.078,28.344,8.882,28.344,8.882l14.385-17.346s-16.927,0-17.75-29.615S937.061,249.814,937.061,249.814Z" transform="translate(-308.974 -104.787)"/>
    <path id="Path_73" data-name="Path 73" class="cls-15" d="M967.795,470.725a55.53,55.53,0,0,1-9.429,2.364c-5.268.809-11.481.845-15.116-2.364-2.13-1.9-7.462-2.13-13.838-1.527-13.426,1.285-31.6,6.3-35.082,7.285a78.56,78.56,0,0,1,1.526-7.874s41.358-26.029,56.979-8.037h9.024a16.218,16.218,0,0,1,4.693,5.247C967.341,469.184,967.795,470.725,967.795,470.725Z" transform="translate(-296.979 -167.883)"/>
    <path id="Path_74" data-name="Path 74" class="cls-15" d="M963.612,757.1l-2.961,8.037-19.461-5.5,1.108-7.981c3.344,7.4,9.046,8.4,9.046,8.4a69.019,69.019,0,0,1,11.644-5.1C963.364,756.251,963.612,757.1,963.612,757.1Z" transform="translate(-310.568 -254.131)"/>
    <path id="Path_75" data-name="Path 75" class="cls-28" d="M953.826,753.922s-2.961,0-13.54,5.5c0,0-7.192-1.271-10.153-11.424,0,0-8.882,15.23-14.811,16.075s-17.346,1.676-9.727,11.85,52.463,5.5,52.463,5.5S959.328,756.882,953.826,753.922Z" transform="translate(-299.511 -253.072)"/>
    <path id="Path_76" data-name="Path 76" class="cls-27" d="M833.19,235.833s.958-19.092,22.408-14.165l-5.5,10.316Z" transform="translate(-279.25 -100.206)"/>
    <path id="Path_77" data-name="Path 77" class="cls-23" d="M933.219,282.852s-20.732-3.387-26.235-7.618c0,0-4.26,8.037-11.85,3.806s-25.383-3.806-25.383-3.806A38.3,38.3,0,0,1,852,249s-2.961-11-2.13-13.959c0,0-11-11.424-16.5,3.806,2.13,10.579,3.806,9.734,3.387,18.19l6.766,18.617s.426,6.348,12.7,14.811,26.235,21.577,26.235,21.577-7.405,4.019-4.651,22.422c3.358,22.493-1.69,54.579-1.69,54.579v20.732s42.31-12.269,49.5-5.921,24.538,0,24.538,0-2.13-7.192-5.077-24.538.426-34.272.426-34.272,11-29.2,16.075-41.039-3.806-27.925-12.7-33.846-12.191-2.364-12.191-2.364S952.233,279.047,933.219,282.852Z" transform="translate(-279.302 -103.127)"/>
    <path id="Path_78" data-name="Path 78" class="cls-15" d="M917.871,217.7a7.484,7.484,0,0,0,.44,2.584,8.15,8.15,0,0,0,1.981,2.464c3.167,3.1,5.95,6.773,7.065,11.062a33.665,33.665,0,0,1,.667,8.946c-.185,12.148-.71,25.262-8.194,34.791-2.755,3.515-6.3,6.3-9.635,9.28a2.9,2.9,0,0,0-1.008,1.385,2.535,2.535,0,0,0,.312,1.676c1.548,3.216,4.807,5.19,7.9,6.979a10.009,10.009,0,0,0,4.53,1.711c3.848.128,6.39-3.941,9.89-5.538,5.1-2.329,10.813.909,15.876,3.323a55.941,55.941,0,0,0,11.46,4c5.417,1.25,11.538,1.555,16.1-1.619a12.29,12.29,0,0,0,5.013-7.846c.369-2.066.312-4.466,1.874-5.865.809-.71,1.91-1.022,2.776-1.661,1.356-.994,2-2.663,2.57-4.26l5.211-14.25a11.71,11.71,0,0,0,1.015-4.785c-.248-3.429-3.415-5.921-6.589-7.242s-6.688-1.967-9.486-3.976c-4.722-3.394-6.184-9.734-6.61-15.535a74.8,74.8,0,0,1,.085-11.964c.518-5.9,1.669-12.191-.958-17.5-2.8-5.68-9.1-8.57-14.91-11.041a20.426,20.426,0,0,0-6.965-2.016,19.859,19.859,0,0,0-7.5,1.583c-3.862,1.342-7.81,3.074-11.765,3.983-2.237.511-4.693.128-6.852.937C914.228,200.281,917.871,211.315,917.871,217.7Z" transform="translate(-301.279 -91.486)"/>
    <path id="Path_79" data-name="Path 79" class="cls-30" d="M917.868,216.5a7.482,7.482,0,0,0,.44,2.584,8.149,8.149,0,0,0,1.981,2.464c3.167,3.1,5.95,6.774,7.065,11.062a33.663,33.663,0,0,1,.667,8.946c-.185,12.148-.71,25.262-8.194,34.791-2.755,3.515-6.3,6.3-9.635,9.28a2.9,2.9,0,0,0-1.015,1.356,2.534,2.534,0,0,0,.313,1.676c1.548,3.216,4.807,5.19,7.9,6.979a10.009,10.009,0,0,0,4.53,1.711c3.848.128,6.39-3.941,9.89-5.538,5.1-2.329,10.813.909,15.876,3.323a55.942,55.942,0,0,0,11.46,4c5.417,1.25,11.538,1.555,16.1-1.619a12.29,12.29,0,0,0,5.013-7.846c.369-2.066.312-4.466,1.875-5.865.809-.71,1.91-1.022,2.776-1.661,1.356-.994,2-2.663,2.57-4.26l5.211-14.25a11.706,11.706,0,0,0,1.015-4.785c-.249-3.429-3.415-5.922-6.589-7.242s-6.688-1.967-9.486-3.976c-4.722-3.394-6.184-9.734-6.61-15.535a74.781,74.781,0,0,1,.085-11.964c.518-5.9,1.668-12.191-.959-17.5-2.8-5.68-9.1-8.57-14.91-11.041a20.426,20.426,0,0,0-6.965-2.016,19.859,19.859,0,0,0-7.5,1.583c-3.862,1.342-7.81,3.074-11.765,3.983-2.236.511-4.693.128-6.852.937C914.225,199.1,917.868,210.113,917.868,216.5Z" transform="translate(-301.276 -91.13)"/>
    <path id="Path_80" data-name="Path 80" class="cls-20" d="M897.41,388.5s3.373-.8,20.3-3.358,46.541,3.387,46.541,3.387" transform="translate(-297.873 -147.662)"/>
  </g>
</svg>
