<svg xmlns="http://www.w3.org/2000/svg" xmlns:xlink="http://www.w3.org/1999/xlink" viewBox="0 0 725.758 494.584">
  <defs>
    <style>
      .cls-1 {
        opacity: 0.7;
      }

      .cls-2 {
        fill: url(#linear-gradient);
      }

      .cls-3 {
        fill: #58ce64;
      }

      .cls-4 {
        fill: none;
        stroke: #535461;
        stroke-miterlimit: 10;
        opacity: 0.6;
      }

      .cls-5 {
        fill: #008c9e;
      }

      .cls-6 {
        fill: url(#linear-gradient-2);
      }

      .cls-7 {
        opacity: 0.1;
      }

      .cls-8 {
        fill: #e0e0e0;
      }

      .cls-9 {
        fill: #00cfea;
      }

      .cls-10 {
        fill: #72351c;
      }

      .cls-11 {
        fill: #fda57d;
      }

      .cls-12 {
        fill: url(#linear-gradient-4);
      }

      .cls-13 {
        fill: #535461;
      }

      .cls-14 {
        fill: #fff;
      }

      .cls-15 {
        fill: #f2f2f2;
      }
    </style>
    <linearGradient id="linear-gradient" y1="0.5" x2="1" y2="0.5" gradientUnits="objectBoundingBox">
      <stop offset="0" stop-color="gray" stop-opacity="0.251"/>
      <stop offset="0.54" stop-color="gray" stop-opacity="0.122"/>
      <stop offset="1" stop-color="gray" stop-opacity="0.102"/>
    </linearGradient>
    <linearGradient id="linear-gradient-2" x1="0.5" y1="1" x2="0.5" y2="0" xlink:href="#linear-gradient"/>
    <linearGradient id="linear-gradient-4" x1="0.5" y1="1" x2="0.5" y2="0" xlink:href="#linear-gradient"/>
  </defs>
  <g id="Group_7" data-name="Group 7" transform="translate(-185 -1282.426)">
    <g id="Group_3" data-name="Group 3" class="cls-1" transform="translate(232.8 1585.783)">
      <path id="Path_3" data-name="Path 3" class="cls-2" d="M268.465,584.113a17.616,17.616,0,0,0-6.985-18.677,52.653,52.653,0,0,1-4.677-3.026c-2.368-1.995-3.735-4.931-4.692-7.867-2.346-7.038-3.086-14.942-7.195-21.3-3.735-5.79-11.027-7.471-17.489-8.061-2.353-.209-4.826-.321-6.978.657-3.6,1.629-5.319,5.88-5.484,9.832s.867,7.844,1.121,11.789-.448,8.285-3.354,10.96-7.075,2.988-10.937,3.526a72.427,72.427,0,0,0-14.822,3.683c-4.027,1.494-8.517,4.117-8.7,8.39-.157,3.5,2.667,6.291,4.789,9.077,3.967,5.23,5.977,12.073,4.6,18.476s-5.977,12.11-6.776,18.715a8.128,8.128,0,0,0,.665,4.946,9.046,9.046,0,0,0,2.5,2.652c2.488,1.92,5.23,3.466,7.62,5.551,4.908,4.348,7.568,10.661,9.615,16.892.194.6.374,1.21.56,1.808h-4.826a17.93,17.93,0,0,0-17.833,17.811h0a17.93,17.93,0,0,0,17.848,17.848h48.188a17.93,17.93,0,0,0,17.848-17.848h0A17.93,17.93,0,0,0,245.215,652.1H232.006c3.123-4.184,6.388-8.113,11.206-9.712s10.654-.665,14.434-4.027a11.319,11.319,0,0,0,3.28-6.492,19.328,19.328,0,0,0-2.114-12.835c-1.494-2.712-3.735-5.17-4.221-8.218a12.216,12.216,0,0,1,1.823-7.613C260.06,596.574,266.507,591.427,268.465,584.113Z" transform="translate(-178.262 -525.04)"/>
    </g>
    <path id="Path_4" data-name="Path 4" class="cls-3" d="M227.991,530.374c-2.241-.2-4.595-.306-6.642.628-3.429,1.554-5.065,5.6-5.23,9.361s.829,7.471,1.068,11.206-.426,7.889-3.2,10.459-6.724,2.846-10.415,3.354a68.97,68.97,0,0,0-14.113,3.526c-3.833,1.4-8.106,3.915-8.285,7.994-.149,3.332,2.54,5.977,4.565,8.644a22.086,22.086,0,0,1,4.378,17.594c-1.285,6.1-5.663,11.535-6.455,17.826a7.74,7.74,0,0,0,.635,4.707,8.614,8.614,0,0,0,2.383,2.525c2.368,1.83,5.013,3.3,7.254,5.289,4.677,4.139,7.2,10.153,9.159,16.085a130.253,130.253,0,0,1,4.483,17.833c4.027-2.592,9.234-2.555,13.53-4.662,9.152-4.483,12.23-17.482,21.89-20.717,4.572-1.494,10.146-.635,13.747-3.833a10.773,10.773,0,0,0,3.123-6.179,18.409,18.409,0,0,0-2.017-12.222c-1.442-2.585-3.564-4.923-4.019-7.852a11.621,11.621,0,0,1,1.733-7.247c3.474-6.313,9.615-11.206,11.49-18.177a16.78,16.78,0,0,0-6.649-17.788,49.585,49.585,0,0,1-4.483-2.884c-2.241-1.9-3.534-4.7-4.483-7.471-2.241-6.724-2.936-14.195-6.851-20.284C241.08,532.533,234.147,530.927,227.991,530.374Z" transform="translate(53.803 1059.429)"/>
    <path id="Path_5" data-name="Path 5" class="cls-4" d="M239.147,530.73s8.494,113.865-13.6,133.409" transform="translate(42.579 1059.305)"/>
    <rect id="Rectangle_3" data-name="Rectangle 3" class="cls-5" width="79.879" height="33.993" rx="15.2" transform="translate(235.84 1710.698)"/>
    <path id="Path_6" data-name="Path 6" class="cls-4" d="M181.2,589.821s21.726-2.533,48.255,13.6" transform="translate(53.796 1044.397)"/>
    <path id="Path_7" data-name="Path 7" class="cls-4" d="M245.22,618.218a56.109,56.109,0,0,1,38-23.788" transform="translate(37.605 1043.194)"/>
    <path id="Path_8" data-name="Path 8" class="cls-4" d="M184,651.346s30.115-5.1,43.952,3.4" transform="translate(53.087 1029.184)"/>
    <path id="Path_9" data-name="Path 9" class="cls-4" d="M240.57,670.776s15.764-7.15,33.5-1.345" transform="translate(38.781 1024.801)"/>
    <g id="Group_4" data-name="Group 4" class="cls-1" transform="translate(792.754 1676.735)">
      <path id="Path_10" data-name="Path 10" class="cls-6" d="M989.032,659.032V646.78H927.77v56.645a11.954,11.954,0,0,0,11.954,11.953h37.355a11.953,11.953,0,0,0,11.953-11.953V690.874a15.921,15.921,0,1,0,0-31.841Zm0,25.722v-19.6a9.8,9.8,0,1,1,0,19.6Z" transform="translate(-927.77 -646.78)"/>
    </g>
    <path id="Path_11" data-name="Path 11" class="cls-5" d="M1002.219,665.74a14.539,14.539,0,1,0,14.538,14.538A14.539,14.539,0,0,0,1002.219,665.74Zm0,23.481a8.969,8.969,0,1,1,0,.008Z" transform="translate(-150.167 1025.16)"/>
    <path id="Path_12" data-name="Path 12" class="cls-7" d="M1002.219,665.74a14.539,14.539,0,1,0,14.538,14.538A14.539,14.539,0,0,0,1002.219,665.74Zm0,23.481a8.969,8.969,0,1,1,0,.008Z" transform="translate(-150.167 1025.16)"/>
    <path id="Path_13" data-name="Path 13" class="cls-5" d="M818,531.78h55.913v55.337a7.284,7.284,0,0,1-7.284,7.284H825.3a7.284,7.284,0,0,1-7.284-7.284V531.78Z" transform="translate(-21.876 1147.943)"/>
    <rect id="Rectangle_4" data-name="Rectangle 4" class="cls-8" width="725.758" height="24.602" transform="translate(185 1742.345)"/>
    <g id="Group_5" data-name="Group 5" class="cls-1" transform="translate(416.846 1282.426)">
      <path id="Path_14" data-name="Path 14" class="cls-6" d="M670.135,414.294c-7.777-28.233-51.878-48.853-85.057-53.425V336.081h.1v-.949a82.883,82.883,0,0,0,50.055-52.469,89.547,89.547,0,0,0,5.342-11.52c3.541-1.293,6.216-7.127,6.216-14.15a24.7,24.7,0,0,0-1-7.1,90.8,90.8,0,0,0,.665-10.773,89.786,89.786,0,0,0-29.66-66.775,17.52,17.52,0,0,0,.284-4.393c-.747-11.6-13.141-19.484-24.751-20.007a24.5,24.5,0,0,0,4.131-25.879c-7.4,10.788-22.607,11.954-35.689,12.021,5.648-2.189,8.218-10.011,4.9-15.1-13.672,18.326-40.343,21.726-56.6,37.8a47.707,47.707,0,0,0-8.8,12.006,89.831,89.831,0,0,0-33.858,70.324,90.813,90.813,0,0,0,.65,10.676,24.654,24.654,0,0,0-1.031,7.195c0,7.053,2.7,12.91,6.268,14.195a89.559,89.559,0,0,0,5.364,11.558,82.868,82.868,0,0,0,49.712,52.3v25.835c-33.305,4.483-77.758,25.274-85.468,53.731-6.657,24.579-13.761,51.55-17.3,67.418,30.31,21.3,93.9,33.8,133.73,33.8,37.87,0,99.76-11.289,129.18-30.676C684.412,467.689,677.083,439.5,670.135,414.294Z" transform="translate(-424.61 -118.99)"/>
    </g>
    <path id="Path_15" data-name="Path 15" class="cls-9" d="M559.931,589.82c36.533,0,96.233-10.885,124.615-29.592-3.071-16.795-10.146-43.982-16.847-68.307-8.532-30.982-62.4-52.461-94.537-52.461H542.195c-32.237,0-86.177,21.6-94.6,52.715-6.425,23.713-13.276,49.749-16.69,65.035C460.111,577.762,521.485,589.82,559.931,589.82Z" transform="translate(-9.355 1082.387)"/>
    <circle id="Ellipse_1" data-name="Ellipse 1" class="cls-10" cx="86.842" cy="86.842" r="86.842" transform="translate(461.851 1318.488)"/>
    <path id="Path_16" data-name="Path 16" class="cls-7" d="M449.29,261.31h55.644v44.512a27.822,27.822,0,0,1-27.822,27.822h0a27.822,27.822,0,0,1-27.822-27.822Z" transform="translate(71.372 1216.347)"/>
    <path id="Path_17" data-name="Path 17" class="cls-11" d="M457.3,258.55h39.678a7.979,7.979,0,0,1,7.979,7.979v36.533a27.822,27.822,0,0,1-27.822,27.822h0a27.822,27.822,0,0,1-27.822-27.822V266.529a7.979,7.979,0,0,1,7.986-7.979Z" transform="translate(71.367 1217.045)"/>
    <path id="Path_18" data-name="Path 18" class="cls-7" d="M563.71,406.169a80.081,80.081,0,0,0,55.644.157V399.49H563.71Z" transform="translate(-42.943 1092.496)"/>
    <circle id="Ellipse_2" data-name="Ellipse 2" class="cls-11" cx="79.752" cy="79.752" r="79.752" transform="translate(468.941 1342.888)"/>
    <path id="Path_19" data-name="Path 19" class="cls-7" d="M525,202.77s33.619,68.225,128.426,28.591l-22.039-34.605L592.239,182.71Z" transform="translate(-33.153 1147.321)"/>
    <path id="Path_20" data-name="Path 20" class="cls-10" d="M525,201.427s33.619,68.225,128.426,28.591l-22.039-34.613L592.239,181.36Z" transform="translate(-33.153 1147.662)"/>
    <path id="Path_21" data-name="Path 21" class="cls-10" d="M524.084,183.418a46.073,46.073,0,0,1,11.423-18.573c15.689-15.51,41.4-18.782,54.6-36.466,3.168,4.908.747,12.454-4.729,14.561,12.618-.082,27.284-1.188,34.426-11.595a23.638,23.638,0,0,1-3.99,24.96c11.206.508,23.16,8.113,23.907,19.3.486,7.471-4.191,14.516-10.317,18.789s-13.537,6.238-20.836,7.845C587.243,206.945,510.151,226.623,524.084,183.418Z" transform="translate(-32.499 1161.061)"/>
    <path id="Path_22" data-name="Path 22" class="cls-10" d="M653.852,307.595h-2.122L610.6,344.2c-39.6-18.565-68.733,0-68.733,0l-43.145-35.113-4.348.545a79.748,79.748,0,1,0,159.483-2.055Zm-79.879,50.668c-15.517,0-28.091-3.145-28.091-7.023s12.581-7.023,28.091-7.023,28.091,3.145,28.091,7.023S589.49,358.263,573.973,358.263Z" transform="translate(-25.407 1115.74)"/>
    <ellipse id="Ellipse_3" data-name="Ellipse 3" class="cls-11" cx="7.419" cy="13.911" rx="7.419" ry="13.911" transform="translate(461.485 1408.655)"/>
    <ellipse id="Ellipse_4" data-name="Ellipse 4" class="cls-11" cx="7.419" cy="13.911" rx="7.419" ry="13.911" transform="translate(621.02 1408.655)"/>
    <g id="Group_6" data-name="Group 6" class="cls-1" transform="translate(393.559 1564.611)">
      <rect id="Rectangle_5" data-name="Rectangle 5" class="cls-12" width="308.64" height="177.726" rx="14.5"/>
    </g>
    <rect id="Rectangle_6" data-name="Rectangle 6" class="cls-13" width="297.463" height="174.447" rx="26.84" transform="translate(399.147 1567.891)"/>
    <circle id="Ellipse_5" data-name="Ellipse 5" class="cls-14" cx="10.063" cy="10.063" r="10.063" transform="translate(537.816 1645.058)"/>
    <rect id="Rectangle_7" data-name="Rectangle 7" class="cls-8" width="664.25" height="10.063" transform="translate(215.75 1766.947)"/>
    <rect id="Rectangle_8" data-name="Rectangle 8" class="cls-7" width="664.25" height="3.354" transform="translate(215.75 1766.947)"/>
    <path id="Path_23" data-name="Path 23" class="cls-7" d="M989.98,650.78v51.714a10.9,10.9,0,0,1-10.9,10.9h5.588a10.9,10.9,0,0,0,10.9-10.9V650.78Z" transform="translate(-147.992 1028.943)"/>
    <path id="Path_24" data-name="Path 24" class="cls-15" d="M946.15,594.519a3.291,3.291,0,0,0-2.473,1.255c-.747,1.33.6,2.831,1.808,3.735,2.241,1.688,4.6,3.347,6.126,5.7s2,5.641.336,7.9c-2.174,2.951-7.359,3.579-7.859,7.209-.321,2.331,1.688,4.318,3.735,5.484,5.035,2.884,11.528,3.653,15.181,8.166,1.494-3.1,4.886-4.893,8.218-5.663s6.858-.71,10.273-1.225c1.1-.164,2.338-.5,2.831-1.494.956-1.935-1.763-4.258-.829-6.2.747-1.494,2.809-1.367,4.341-1.957,2.5-.964,3.519-4.176,2.817-6.724s-2.7-4.595-4.811-6.246c-5.663-4.483-12.477-7.068-19.372-8.965-3.205-.874-6.97-2.241-10.295-2.383C953,592.958,949.333,593.959,946.15,594.519Z" transform="translate(-138.984 1043.531)"/>
  </g>
</svg>
